<svg width="25" height="25" viewBox="0 0 25 25" fill="none" xmlns="http://www.w3.org/2000/svg">
<g clip-path="url(#clip0_24_215)">
<path d="M12.5 5.70654C8.7541 5.70654 5.70654 8.7541 5.70654 12.5C5.70654 16.246 8.7541 19.2935 12.5 19.2935C16.246 19.2935 19.2935 16.246 19.2935 12.5C19.2935 8.7541 16.246 5.70654 12.5 5.70654ZM12.5 17.6631C9.65312 17.6631 7.33701 15.3469 7.33701 12.5C7.33701 9.65317 9.65317 7.33701 12.5 7.33701C15.3469 7.33701 17.6631 9.65312 17.6631 12.5C17.6631 15.347 15.347 17.6631 12.5 17.6631Z" fill="white"/>
<path d="M13.3152 0H11.6848V4.34784H13.3152V0Z" fill="white"/>
<path d="M4.23758 3.08465L3.08472 4.23752L6.15904 7.31184L7.31191 6.15898L4.23758 3.08465Z" fill="white"/>
<path d="M4.34784 11.6848H0V13.3152H4.34784V11.6848Z" fill="white"/>
<path d="M6.1588 17.6882L3.08447 20.7625L4.23734 21.9153L7.31167 18.841L6.1588 17.6882Z" fill="white"/>
<path d="M13.3152 20.6522H11.6848V25H13.3152V20.6522Z" fill="white"/>
<path d="M18.8412 17.6884L17.6884 18.8413L20.7627 21.9156L21.9155 20.7628L18.8412 17.6884Z" fill="white"/>
<path d="M25 11.6848H20.6522V13.3152H25V11.6848Z" fill="white"/>
<path d="M20.7615 3.08461L17.6873 6.15891L18.8401 7.31177L21.9144 4.23748L20.7615 3.08461Z" fill="white"/>
</g>
<defs>
<clipPath id="clip0_24_215">
<rect width="25" height="25" fill="white"/>
</clipPath>
</defs>
</svg>
