<svg width="25" height="25" viewBox="0 0 25 25" fill="none" xmlns="http://www.w3.org/2000/svg">
<path d="M4.28284 6.63404C4.28284 10.2907 7.2477 13.2608 10.9106 13.2608C14.5709 13.2608 17.54 10.2907 17.54 6.63404C17.54 2.9706 14.5715 0 10.9106 0C7.24716 0 4.28284 2.9706 4.28284 6.63404Z" fill="#555555"/>
<path d="M2.12113 21.8815C3.20592 22.6408 5.54582 23.6121 10.4179 23.6121C12.1046 23.6121 13.5258 23.5082 14.7271 23.3461C14.2422 22.5284 13.9585 21.5774 13.9585 20.5595C13.9585 17.5869 16.3366 15.1644 19.2899 15.0807C18.9398 14.331 18.4988 13.5769 17.9355 12.8574C17.6324 12.4717 17.0796 12.0485 16.5451 11.759C15.1593 13.312 13.1507 14.2948 10.9111 14.2948C8.67309 14.2948 6.66504 13.3114 5.28086 11.7621C4.75835 12.0589 4.22011 12.4821 3.927 12.8667C2.97598 14.1077 1.50819 16.5129 1.2741 19.7542C1.22399 20.4378 1.5495 21.4823 2.12113 21.8815Z" fill="#555555"/>
<path d="M19.2894 16.1169C16.8367 16.1169 14.8479 18.1057 14.8479 20.5584C14.8479 23.0112 16.8367 24.9999 19.2894 24.9999C21.7422 24.9999 23.7309 23.0112 23.7309 20.5584C23.7309 18.1057 21.7428 16.1169 19.2894 16.1169ZM21.4819 21.3757H19.7686L18.7403 21.3762L17.0269 21.3757C16.7427 21.3762 16.5127 21.1464 16.5133 20.8626C16.5133 20.5783 16.7432 20.3484 17.0269 20.3484H18.7408H19.7686H21.4816C21.7653 20.3484 21.9952 20.5783 21.9957 20.8626C21.9956 21.1458 21.7657 21.3757 21.4819 21.3757Z" fill="#555555"/>
</svg>
