<svg width="25" height="25" viewBox="0 0 25 25" fill="none" xmlns="http://www.w3.org/2000/svg">
<rect x="1" y="1" width="23" height="23" rx="11.5" stroke="#555555" stroke-width="2"/>
<path d="M12.4914 9.04C12.1501 9.04 11.8514 8.91733 11.5954 8.672C11.3501 8.416 11.2274 8.11733 11.2274 7.776C11.2274 7.43467 11.3501 7.136 11.5954 6.88C11.8514 6.624 12.1501 6.496 12.4914 6.496C12.8434 6.496 13.1421 6.624 13.3874 6.88C13.6434 7.136 13.7714 7.43467 13.7714 7.776C13.7714 8.11733 13.6434 8.416 13.3874 8.672C13.1421 8.91733 12.8434 9.04 12.4914 9.04ZM13.5314 18H11.4674V10H13.5314V18Z" fill="#555555"/>
</svg>
