<svg width="20" height="21" viewBox="0 0 20 21" fill="none" xmlns="http://www.w3.org/2000/svg">
<g clip-path="url(#clip0_13_48)">
<path d="M12.5 13.125C12.0398 13.125 11.6667 13.5167 11.6667 14V19.25H1.66668V1.75001H11.6667V7.00001C11.6667 7.48326 12.0398 7.875 12.5 7.875C12.9602 7.875 13.3333 7.48326 13.3333 7.00001V0.874986C13.3333 0.39174 12.9602 0 12.5 0H0.83332C0.373086 0 0 0.39174 0 0.874986V20.125C0 20.6083 0.373086 21 0.83332 21H12.5C12.9602 21 13.3333 20.6083 13.3333 20.125V14C13.3333 13.5167 12.9602 13.125 12.5 13.125Z" fill="white"/>
<path d="M19.811 11.0545C19.819 11.0444 19.8259 11.0337 19.8333 11.0232C19.8422 11.0108 19.8514 10.9987 19.8596 10.9858C19.8675 10.9733 19.8744 10.9603 19.8817 10.9475C19.8883 10.9358 19.8953 10.9244 19.9014 10.9124C19.9081 10.8993 19.9137 10.8859 19.9197 10.8725C19.9254 10.86 19.9313 10.8477 19.9364 10.8348C19.9415 10.8219 19.9457 10.8086 19.9501 10.7955C19.9548 10.7817 19.9599 10.7681 19.9639 10.754C19.9677 10.7408 19.9705 10.7275 19.9737 10.7142C19.9771 10.6998 19.981 10.6856 19.9837 10.671C19.9866 10.6556 19.9883 10.6401 19.9905 10.6246C19.9922 10.6119 19.9946 10.5993 19.9958 10.5863C20.0012 10.5289 20.0012 10.471 19.9958 10.4136C19.9946 10.4007 19.9923 10.3882 19.9905 10.3754C19.9884 10.3599 19.9867 10.3443 19.9837 10.329C19.981 10.3143 19.9771 10.3001 19.9737 10.2857C19.9705 10.2724 19.9677 10.2591 19.9639 10.246C19.9599 10.2319 19.9548 10.2182 19.9501 10.2044C19.9456 10.1913 19.9415 10.1781 19.9364 10.1652C19.9314 10.1523 19.9254 10.14 19.9197 10.1274C19.9137 10.1141 19.9081 10.1006 19.9014 10.0876C19.8953 10.0756 19.8883 10.0641 19.8817 10.0524C19.8744 10.0396 19.8675 10.0267 19.8596 10.0142C19.8513 10.0013 19.8422 9.98915 19.8333 9.97677C19.8259 9.96631 19.819 9.9556 19.811 9.94543C19.7939 9.92349 19.7758 9.90236 19.7567 9.88227C19.7564 9.88194 19.7561 9.88161 19.7558 9.88132L16.4225 6.38134C16.0971 6.03964 15.5694 6.03964 15.244 6.38134C14.9186 6.72304 14.9186 7.27708 15.244 7.61878L17.1548 9.62506H9.99995C9.53971 9.62506 9.16663 10.0168 9.16663 10.5C9.16663 10.9833 9.53971 11.375 9.99995 11.375H17.1548L15.244 13.3813C14.9186 13.723 14.9186 14.2771 15.244 14.6188C15.5694 14.9605 16.0971 14.9605 16.4225 14.6188L19.7558 11.1188C19.7562 11.1184 19.7564 11.1181 19.7567 11.1178C19.7758 11.0976 19.7939 11.0765 19.811 11.0545Z" fill="white"/>
</g>
<defs>
<clipPath id="clip0_13_48">
<rect width="20" height="21" fill="white"/>
</clipPath>
</defs>
</svg>
