<svg width="108" height="108" viewBox="0 0 108 108" fill="none" xmlns="http://www.w3.org/2000/svg">
<g filter="url(#filter0_d_29_6)">
<circle cx="54" cy="50" r="50" fill="#6A00F1"/>
<path d="M50.94 61H46.47L42.24 53.71H39.09V61H34.95V40H43.35C45.29 40 46.94 40.68 48.3 42.04C49.66 43.4 50.34 45.04 50.34 46.96C50.34 48.26 49.97 49.47 49.23 50.59C48.49 51.69 47.51 52.52 46.29 53.08L50.94 61ZM43.35 43.87H39.09V50.08H43.35C44.13 50.08 44.8 49.78 45.36 49.18C45.92 48.56 46.2 47.82 46.2 46.96C46.2 46.1 45.92 45.37 45.36 44.77C44.8 44.17 44.13 43.87 43.35 43.87Z" fill="white"/>
<path d="M50.94 61V62H52.6867L51.8024 60.4937L50.94 61ZM46.47 61L45.6051 61.5019L45.8941 62H46.47V61ZM42.24 53.71L43.1049 53.2081L42.8159 52.71H42.24V53.71ZM39.09 53.71V52.71H38.09V53.71H39.09ZM39.09 61V62H40.09V61H39.09ZM34.95 61H33.95V62H34.95V61ZM34.95 40V39H33.95V40H34.95ZM48.3 42.04L49.0071 41.3329V41.3329L48.3 42.04ZM49.23 50.59L50.0598 51.1482L50.0643 51.1413L49.23 50.59ZM46.29 53.08L45.8728 52.1712L44.8677 52.6326L45.4276 53.5863L46.29 53.08ZM39.09 43.87V42.87H38.09V43.87H39.09ZM39.09 50.08H38.09V51.08H39.09V50.08ZM45.36 49.18L46.0911 49.8623L46.0966 49.8563L46.1021 49.8503L45.36 49.18ZM45.36 44.77L44.6289 45.4523L44.6289 45.4523L45.36 44.77ZM50.94 60H46.47V62H50.94V60ZM47.3349 60.4981L43.1049 53.2081L41.3751 54.2119L45.6051 61.5019L47.3349 60.4981ZM42.24 52.71H39.09V54.71H42.24V52.71ZM38.09 53.71V61H40.09V53.71H38.09ZM39.09 60H34.95V62H39.09V60ZM35.95 61V40H33.95V61H35.95ZM34.95 41H43.35V39H34.95V41ZM43.35 41C45.0274 41 46.4223 41.5765 47.5929 42.7471L49.0071 41.3329C47.4578 39.7835 45.5526 39 43.35 39V41ZM47.5929 42.7471C48.7657 43.9199 49.34 45.3057 49.34 46.96H51.34C51.34 44.7743 50.5543 42.8801 49.0071 41.3329L47.5929 42.7471ZM49.34 46.96C49.34 48.0573 49.0313 49.0766 48.3957 50.0387L50.0643 51.1413C50.9087 49.8634 51.34 48.4627 51.34 46.96H49.34ZM48.4003 50.0318C47.7643 50.9772 46.9279 51.6869 45.8728 52.1712L46.7072 53.9888C48.0921 53.3531 49.2157 52.4028 50.0597 51.1482L48.4003 50.0318ZM45.4276 53.5863L50.0776 61.5063L51.8024 60.4937L47.1524 52.5737L45.4276 53.5863ZM43.35 42.87H39.09V44.87H43.35V42.87ZM38.09 43.87V50.08H40.09V43.87H38.09ZM39.09 51.08H43.35V49.08H39.09V51.08ZM43.35 51.08C44.4231 51.08 45.353 50.6531 46.0911 49.8623L44.6289 48.4977C44.247 48.9069 43.8369 49.08 43.35 49.08V51.08ZM46.1021 49.8503C46.8334 49.0406 47.2 48.0596 47.2 46.96H45.2C45.2 47.5804 45.0066 48.0794 44.6179 48.5097L46.1021 49.8503ZM47.2 46.96C47.2 45.8601 46.8328 44.8824 46.0911 44.0877L44.6289 45.4523C45.0072 45.8576 45.2 46.3399 45.2 46.96H47.2ZM46.0911 44.0877C45.353 43.2969 44.4231 42.87 43.35 42.87V44.87C43.8369 44.87 44.247 45.0431 44.6289 45.4523L46.0911 44.0877Z" fill="white"/>
<path d="M66.91 61.42C63.77 61.42 61.16 60.37 59.08 58.27C57.02 56.19 55.99 53.6 55.99 50.5C55.99 47.38 57.02 44.79 59.08 42.73C61.16 40.63 63.77 39.58 66.91 39.58C68.81 39.58 70.56 40.03 72.16 40.93C73.78 41.81 75.04 43.01 75.94 44.53L72.37 46.6C71.85 45.66 71.11 44.93 70.15 44.41C69.19 43.87 68.11 43.6 66.91 43.6C64.87 43.6 63.22 44.24 61.96 45.52C60.72 46.82 60.1 48.48 60.1 50.5C60.1 52.5 60.72 54.15 61.96 55.45C63.22 56.73 64.87 57.37 66.91 57.37C68.11 57.37 69.19 57.11 70.15 56.59C71.13 56.05 71.87 55.32 72.37 54.4L75.94 56.47C75.04 57.99 73.78 59.2 72.16 60.1C70.56 60.98 68.81 61.42 66.91 61.42Z" fill="white"/>
<path d="M59.08 58.27L58.3695 58.9737L58.3695 58.9737L59.08 58.27ZM59.08 42.73L59.7871 43.4371L59.7905 43.4337L59.08 42.73ZM72.16 40.93L71.6697 41.8016L71.6762 41.8052L71.6827 41.8087L72.16 40.93ZM75.94 44.53L76.4416 45.3951L77.3146 44.8889L76.8005 44.0205L75.94 44.53ZM72.37 46.6L71.495 47.0841L71.9889 47.9769L72.8716 47.4651L72.37 46.6ZM70.15 44.41L69.6597 45.2816L69.6667 45.2855L69.6737 45.2893L70.15 44.41ZM61.96 45.52L61.2473 44.8185L61.2418 44.8241L61.2364 44.8298L61.96 45.52ZM61.96 55.45L61.2364 56.1402L61.2418 56.1459L61.2473 56.1515L61.96 55.45ZM70.15 56.59L70.6263 57.4693L70.6326 57.4658L70.15 56.59ZM72.37 54.4L72.8716 53.5349L71.9823 53.0192L71.4914 53.9225L72.37 54.4ZM75.94 56.47L76.8005 56.9795L77.3146 56.1111L76.4416 55.6049L75.94 56.47ZM72.16 60.1L72.6419 60.9762L72.6456 60.9742L72.16 60.1ZM66.91 60.42C64.0184 60.42 61.6701 59.4639 59.7905 57.5663L58.3695 58.9737C60.6499 61.2761 63.5216 62.42 66.91 62.42V60.42ZM59.7905 57.5663C57.9277 55.6855 56.99 53.3537 56.99 50.5H54.99C54.99 53.8463 56.1123 56.6945 58.3695 58.9737L59.7905 57.5663ZM56.99 50.5C56.99 47.6244 57.9289 45.2953 59.7871 43.4371L58.3729 42.0229C56.1111 44.2847 54.99 47.1356 54.99 50.5H56.99ZM59.7905 43.4337C61.6701 41.5361 64.0184 40.58 66.91 40.58V38.58C63.5216 38.58 60.6499 39.7239 58.3695 42.0263L59.7905 43.4337ZM66.91 40.58C68.6445 40.58 70.2248 40.9888 71.6697 41.8016L72.6503 40.0584C70.8952 39.0712 68.9755 38.58 66.91 38.58V40.58ZM71.6827 41.8087C73.1512 42.6064 74.2757 43.6819 75.0795 45.0395L76.8005 44.0205C75.8043 42.3381 74.4088 41.0136 72.6373 40.0513L71.6827 41.8087ZM75.4384 43.6649L71.8684 45.7349L72.8716 47.4651L76.4416 45.3951L75.4384 43.6649ZM73.245 46.1159C72.631 45.006 71.7513 44.1401 70.6263 43.5307L69.6737 45.2893C70.4687 45.7199 71.069 46.314 71.495 47.0841L73.245 46.1159ZM70.6403 43.5384C69.5174 42.9068 68.2659 42.6 66.91 42.6V44.6C67.9541 44.6 68.8626 44.8332 69.6597 45.2816L70.6403 43.5384ZM66.91 42.6C64.6418 42.6 62.7215 43.321 61.2473 44.8185L62.6727 46.2215C63.7185 45.159 65.0982 44.6 66.91 44.6V42.6ZM61.2364 44.8298C59.7964 46.3394 59.1 48.2576 59.1 50.5H61.1C61.1 48.7024 61.6436 47.3006 62.6836 46.2102L61.2364 44.8298ZM59.1 50.5C59.1 52.7254 59.7983 54.6325 61.2364 56.1402L62.6836 54.7598C61.6417 53.6675 61.1 52.2746 61.1 50.5H59.1ZM61.2473 56.1515C62.7215 57.649 64.6418 58.37 66.91 58.37V56.37C65.0982 56.37 63.7185 55.811 62.6727 54.7485L61.2473 56.1515ZM66.91 58.37C68.2595 58.37 69.5059 58.0762 70.6263 57.4693L69.6737 55.7107C68.8741 56.1438 67.9605 56.37 66.91 56.37V58.37ZM70.6326 57.4658C71.768 56.8402 72.6511 55.977 73.2486 54.8775L71.4914 53.9225C71.0889 54.663 70.492 55.2598 69.6674 55.7142L70.6326 57.4658ZM71.8684 55.2651L75.4384 57.3351L76.4416 55.6049L72.8716 53.5349L71.8684 55.2651ZM75.0795 55.9605C74.2744 57.3202 73.1472 58.4076 71.6744 59.2258L72.6456 60.9742C74.4128 59.9924 75.8056 58.6598 76.8005 56.9795L75.0795 55.9605ZM71.6781 59.2238C70.2318 60.0192 68.6486 60.42 66.91 60.42V62.42C68.9714 62.42 70.8882 61.9408 72.6419 60.9762L71.6781 59.2238Z" fill="white"/>
</g>
<defs>
<filter id="filter0_d_29_6" x="0" y="0" width="108" height="108" filterUnits="userSpaceOnUse" color-interpolation-filters="sRGB">
<feFlood flood-opacity="0" result="BackgroundImageFix"/>
<feColorMatrix in="SourceAlpha" type="matrix" values="0 0 0 0 0 0 0 0 0 0 0 0 0 0 0 0 0 0 127 0" result="hardAlpha"/>
<feOffset dy="4"/>
<feGaussianBlur stdDeviation="2"/>
<feComposite in2="hardAlpha" operator="out"/>
<feColorMatrix type="matrix" values="0 0 0 0 0 0 0 0 0 0 0 0 0 0 0 0 0 0 0.25 0"/>
<feBlend mode="normal" in2="BackgroundImageFix" result="effect1_dropShadow_29_6"/>
<feBlend mode="normal" in="SourceGraphic" in2="effect1_dropShadow_29_6" result="shape"/>
</filter>
</defs>
</svg>
