<svg width="21" height="22" viewBox="0 0 21 22" fill="none" xmlns="http://www.w3.org/2000/svg">
<g clip-path="url(#clip0_165_2)">
<path d="M16.8533 12.6923L18.2077 11L7.36768 10.1279L6.24381 11L2.80969 14.5976L16.8533 12.6923Z" fill="#00D4BE"/>
<path d="M16.8533 11.8201V12.6923L21 11L18.2077 10.5639V11L16.8533 11.8201Z" fill="#00B3A0"/>
<path d="M16.8533 9.30773L2.80969 7.4024L6.24381 11H18.2077L16.8533 9.30773Z" fill="#008F80"/>
<path d="M18.2077 11H21L16.8533 9.30774V10.1799L18.2077 11Z" fill="#00786B"/>
<path d="M0.312195 21.8365L21 11L16.8533 11.8201L13.9396 12.6923L0.312195 21.8365Z" fill="#00D4BE"/>
<path d="M2.80972 14.5976L0.312195 21.8364L16.8533 11.8201L2.80972 14.5976Z" fill="#06F5DD"/>
<path d="M21 11L0.312195 0.163513L13.5233 9.30769L16.8533 10.1798L21 11Z" fill="#00D4BE"/>
<path d="M0.312195 0.163513L2.80972 7.40237L16.8533 10.1798L0.312195 0.163513Z" fill="#06F5DD"/>
</g>
<defs>
<clipPath id="clip0_165_2">
<rect width="21" height="22" fill="white"/>
</clipPath>
</defs>
</svg>
