<svg width="20" height="20" viewBox="0 0 20 20" fill="none" xmlns="http://www.w3.org/2000/svg">
<g clip-path="url(#clip0_24_45)">
<path d="M17.0711 2.92891C15.1823 1.04021 12.6711 0 10 0C7.32891 0 4.81769 1.04021 2.92891 2.92891C1.04021 4.81769 0 7.32891 0 10C0 12.6711 1.04021 15.1823 2.92891 17.0711C4.81769 18.9598 7.32891 20 10 20C12.6711 20 15.1823 18.9598 17.0711 17.0711C18.9598 15.1823 20 12.6711 20 10C20 7.32891 18.9598 4.81769 17.0711 2.92891ZM10 18.7629C5.16812 18.7629 1.23711 14.8319 1.23711 10C1.23711 5.16812 5.16812 1.23711 10 1.23711C14.8319 1.23711 18.7629 5.16812 18.7629 10C18.7629 14.8319 14.8319 18.7629 10 18.7629Z" fill="#727272"/>
<path d="M13.1346 9.54584C13.9304 9.54584 14.5779 8.89837 14.5779 8.10254C14.5779 7.3067 13.9304 6.65924 13.1346 6.65924C12.3387 6.65924 11.6913 7.3067 11.6913 8.10254C11.6913 8.89837 12.3387 9.54584 13.1346 9.54584Z" fill="#727272"/>
<path d="M6.86539 9.54584C7.66122 9.54584 8.30869 8.89837 8.30869 8.10254C8.30869 7.3067 7.66122 6.65924 6.86539 6.65924C6.06955 6.65924 5.42209 7.3067 5.42209 8.10254C5.42209 8.89837 6.06959 9.54584 6.86539 9.54584Z" fill="#727272"/>
<path d="M10 14.6392C8.06554 14.6392 6.31548 13.4178 5.64521 11.5999L4.48447 12.0278C5.33317 14.3297 7.5497 15.8763 10 15.8763C12.4503 15.8763 14.6669 14.3297 15.5156 12.0278L14.3548 11.5999C13.6845 13.4178 11.9345 14.6392 10 14.6392Z" fill="#727272"/>
</g>
<defs>
<clipPath id="clip0_24_45">
<rect width="20" height="20" fill="white"/>
</clipPath>
</defs>
</svg>
