<svg width="37" height="37" viewBox="0 0 37 37" fill="none" xmlns="http://www.w3.org/2000/svg">
<circle cx="18.5" cy="18.5" r="18.5" fill="#6A00F1"/>
<path d="M17.372 24H15.286L13.312 20.598H11.842V24H9.91V14.2H13.83C14.7353 14.2 15.5053 14.5173 16.14 15.152C16.7747 15.7867 17.092 16.552 17.092 17.448C17.092 18.0547 16.9193 18.6193 16.574 19.142C16.2287 19.6553 15.7713 20.0427 15.202 20.304L17.372 24ZM13.83 16.006H11.842V18.904H13.83C14.194 18.904 14.5067 18.764 14.768 18.484C15.0293 18.1947 15.16 17.8493 15.16 17.448C15.16 17.0467 15.0293 16.706 14.768 16.426C14.5067 16.146 14.194 16.006 13.83 16.006Z" fill="white"/>
<path d="M23.558 24.196C22.0927 24.196 20.8747 23.706 19.904 22.726C18.9427 21.7553 18.462 20.5467 18.462 19.1C18.462 17.644 18.9427 16.4353 19.904 15.474C20.8747 14.494 22.0927 14.004 23.558 14.004C24.4447 14.004 25.2613 14.214 26.008 14.634C26.764 15.0447 27.352 15.6047 27.772 16.314L26.106 17.28C25.8633 16.8413 25.518 16.5007 25.07 16.258C24.622 16.006 24.118 15.88 23.558 15.88C22.606 15.88 21.836 16.1787 21.248 16.776C20.6693 17.3827 20.38 18.1573 20.38 19.1C20.38 20.0333 20.6693 20.8033 21.248 21.41C21.836 22.0073 22.606 22.306 23.558 22.306C24.118 22.306 24.622 22.1847 25.07 21.942C25.5273 21.69 25.8727 21.3493 26.106 20.92L27.772 21.886C27.352 22.5953 26.764 23.16 26.008 23.58C25.2613 23.9907 24.4447 24.196 23.558 24.196Z" fill="white"/>
</svg>
