<svg width="37" height="37" viewBox="0 0 37 37" fill="none" xmlns="http://www.w3.org/2000/svg">
<circle cx="18.5" cy="18.5" r="18.5" fill="white" fill-opacity="0.4"/>
<path d="M17.372 23H15.286L13.312 19.598H11.842V23H9.91V13.2H13.83C14.7353 13.2 15.5053 13.5173 16.14 14.152C16.7747 14.7867 17.092 15.552 17.092 16.448C17.092 17.0547 16.9193 17.6193 16.574 18.142C16.2287 18.6553 15.7713 19.0427 15.202 19.304L17.372 23ZM13.83 15.006H11.842V17.904H13.83C14.194 17.904 14.5067 17.764 14.768 17.484C15.0293 17.1947 15.16 16.8493 15.16 16.448C15.16 16.0467 15.0293 15.706 14.768 15.426C14.5067 15.146 14.194 15.006 13.83 15.006Z" fill="white"/>
<path d="M23.558 23.196C22.0927 23.196 20.8747 22.706 19.904 21.726C18.9427 20.7553 18.462 19.5467 18.462 18.1C18.462 16.644 18.9427 15.4353 19.904 14.474C20.8747 13.494 22.0927 13.004 23.558 13.004C24.4447 13.004 25.2613 13.214 26.008 13.634C26.764 14.0447 27.352 14.6047 27.772 15.314L26.106 16.28C25.8633 15.8413 25.518 15.5007 25.07 15.258C24.622 15.006 24.118 14.88 23.558 14.88C22.606 14.88 21.836 15.1787 21.248 15.776C20.6693 16.3827 20.38 17.1573 20.38 18.1C20.38 19.0333 20.6693 19.8033 21.248 20.41C21.836 21.0073 22.606 21.306 23.558 21.306C24.118 21.306 24.622 21.1847 25.07 20.942C25.5273 20.69 25.8727 20.3493 26.106 19.92L27.772 20.886C27.352 21.5953 26.764 22.16 26.008 22.58C25.2613 22.9907 24.4447 23.196 23.558 23.196Z" fill="white"/>
</svg>
