<svg width="22" height="22" viewBox="0 0 22 22" fill="none" xmlns="http://www.w3.org/2000/svg">
<g clip-path="url(#clip0_15_2)">
<path d="M20.9 8.8H19.47C19.25 8.03 18.92 7.26 18.48 6.49L19.47 5.5C19.91 5.06 19.91 4.4 19.47 3.96L17.93 2.42C17.49 1.98 16.83 1.98 16.39 2.42L15.4 3.41C14.74 2.97 13.97 2.64 13.09 2.42V1.1C13.09 0.44 12.65 0 11.99 0H9.79C9.13 0 8.69 0.44 8.69 1.1V2.53C8.03 2.75 7.26 2.97 6.49 3.41L5.61 2.42C5.17 1.98 4.51 1.98 4.07 2.42L2.42 3.96C1.98 4.4 1.98 5.06 2.42 5.5L3.41 6.49C2.97 7.26 2.75 8.03 2.53 8.8H1.1C0.44 8.8 0 9.24 0 9.9V12.1C0 12.76 0.44 13.2 1.1 13.2H2.53C2.75 13.97 3.08 14.74 3.52 15.51L2.53 16.5C2.09 16.94 2.09 17.6 2.53 18.04L4.07 19.58C4.51 20.02 5.17 20.02 5.61 19.58L6.6 18.59C7.26 19.03 8.03 19.36 8.91 19.58V20.9C8.91 21.56 9.35 22 10.01 22H12.21C12.87 22 13.31 21.56 13.31 20.9V19.47C14.08 19.25 14.85 18.92 15.62 18.48L16.61 19.47C17.05 19.91 17.71 19.91 18.15 19.47L19.69 17.93C20.13 17.49 20.13 16.83 19.69 16.39L18.7 15.4C19.14 14.74 19.47 13.97 19.69 13.09H20.9C21.56 13.09 22 12.65 22 11.99V9.79C22 9.24 21.56 8.8 20.9 8.8ZM11 16.5C7.92 16.5 5.5 14.08 5.5 11C5.5 7.92 7.92 5.5 11 5.5C14.08 5.5 16.5 7.92 16.5 11C16.5 14.08 14.08 16.5 11 16.5Z" fill="white"/>
<path d="M11 14.3C12.8225 14.3 14.3 12.8226 14.3 11C14.3 9.17747 12.8225 7.70001 11 7.70001C9.17741 7.70001 7.69995 9.17747 7.69995 11C7.69995 12.8226 9.17741 14.3 11 14.3Z" fill="white"/>
</g>
<defs>
<clipPath id="clip0_15_2">
<rect width="22" height="22" fill="white"/>
</clipPath>
</defs>
</svg>
