<svg width="36" height="36" viewBox="0 0 36 36" fill="none" xmlns="http://www.w3.org/2000/svg">
<rect width="36" height="36" rx="18" fill="url(#paint0_linear_24_259)"/>
<path d="M14.4704 10.1648C12.5085 10.1648 10.9122 11.8564 10.9122 13.9358C10.9122 16.0157 12.5085 17.7073 14.4704 17.7073C16.4323 17.7073 18.0282 16.0157 18.0282 13.9358C18.0282 11.8564 16.4323 10.1648 14.4704 10.1648ZM14.4704 16.5355C13.1545 16.5355 12.084 15.3692 12.084 13.9358C12.084 12.5024 13.1545 11.3365 14.4704 11.3365C15.7859 11.3365 16.8565 12.5024 16.8565 13.9358C16.8564 15.3692 15.7859 16.5355 14.4704 16.5355Z" fill="white"/>
<path d="M22.4952 10.7018C20.8099 10.7159 19.4502 12.1778 19.4651 13.9612C19.4721 14.8173 19.792 15.6219 20.365 16.2261C20.943 16.8354 21.709 17.1702 22.5241 17.1702H22.5487C24.234 17.1561 25.5932 15.6942 25.5788 13.9108C25.564 12.1274 24.1798 10.6885 22.4952 10.7018ZM22.539 15.9985C22.0429 16.002 21.5731 15.7969 21.2153 15.4196C20.847 15.0314 20.6415 14.51 20.6368 13.9514C20.6275 12.8144 21.4657 11.8821 22.505 11.8735H22.5194C23.5521 11.8735 24.3977 12.7883 24.4071 13.9202C24.4165 15.0576 23.5783 15.9899 22.539 15.9985Z" fill="white"/>
<path d="M28 23.2277C28 20.2069 25.5425 17.7494 22.5217 17.7494C20.8836 17.7494 19.4107 18.4724 18.4062 19.6163C17.3149 18.7774 15.9498 18.2782 14.4703 18.2782C10.9024 18.2783 8 21.181 8 24.7486V25.8352H20.9403V24.7486C20.9403 24.574 20.9332 24.401 20.9196 24.2299H28V23.2277ZM9.1725 24.6635C9.21781 21.781 11.5769 19.45 14.4703 19.45C15.6987 19.45 16.8306 19.8703 17.7305 20.5741C18.0543 20.828 18.3476 21.1182 18.605 21.4385C18.9893 21.9177 19.292 22.4645 19.4923 23.0582C19.6185 23.432 19.704 23.8241 19.7435 24.2299C19.7575 24.3729 19.7657 24.5174 19.7681 24.6635H9.1725ZM20.7161 23.0582C20.4458 22.0599 19.9416 21.1565 19.267 20.4108C20.0572 19.4988 21.2234 18.9211 22.5217 18.9211C24.8394 18.9211 26.7357 20.762 26.8251 23.0582H20.7161Z" fill="white"/>
<defs>
<linearGradient id="paint0_linear_24_259" x1="1.65019e-08" y1="18" x2="36" y2="18" gradientUnits="userSpaceOnUse">
<stop stop-color="#A36EE7"/>
<stop offset="1" stop-color="#AF71FF"/>
</linearGradient>
</defs>
</svg>
