<svg width="16" height="16" viewBox="0 0 16 16" fill="none" xmlns="http://www.w3.org/2000/svg">
<g clip-path="url(#clip0_39_303)">
<mask id="mask0_39_303" style="mask-type:luminance" maskUnits="userSpaceOnUse" x="0" y="0" width="16" height="16">
<path d="M16 0H0V16H16V0Z" fill="white"/>
</mask>
<g mask="url(#mask0_39_303)">
<path d="M14.1692 3.71888C12.7989 1.84023 11.0012 0.775068 8.6355 0.5C9.74223 1.7817 10.5035 3.16875 10.9895 4.71966C12.0962 4.49141 13.1444 4.19294 14.1692 3.71888Z" fill="white"/>
<path d="M4.25006 5.52288C3.83001 5.41303 3.42197 5.30631 3.01989 5.18202C2.66058 5.06606 2.30606 4.93336 1.95173 4.80073C1.7517 4.72586 1.55173 4.65102 1.35101 4.57922C0.162291 6.66856 0.27355 9.63579 1.34515 11.3857C1.94399 11.1975 2.53794 11.0093 3.13731 10.8194L3.1384 10.8191C3.67559 10.6489 4.21745 10.4772 4.77076 10.303C4.45455 8.78132 4.4604 7.21285 4.77661 5.66193C4.59874 5.61407 4.42337 5.5682 4.25006 5.52288Z" fill="white"/>
<path d="M12.9458 5.15853C12.3749 5.33995 11.8035 5.52153 11.2297 5.70295C11.5459 7.23631 11.5342 8.79307 11.2297 10.2972C12.3891 10.6659 13.5193 11.0229 14.6612 11.3799C15.7855 9.45441 15.7737 6.52815 14.6612 4.61438C14.0874 4.79576 13.5166 4.97715 12.9458 5.15853Z" fill="white"/>
<path d="M5.71946 10.2269C5.39154 8.74036 5.40325 7.28309 5.70189 5.82581C5.94067 5.83985 6.17524 5.85652 6.40685 5.87298C6.94766 5.91141 7.47261 5.94871 7.99734 5.94871C8.52205 5.94871 9.04676 5.91143 9.58754 5.873C9.81913 5.85654 10.0541 5.83985 10.2928 5.82581C10.6149 7.25968 10.6032 8.72866 10.287 10.221C8.75273 10.022 7.25366 10.0103 5.71946 10.2269Z" fill="white"/>
<path d="M14.1693 12.2754C12.8107 14.154 11.0072 15.2133 8.64148 15.5001C9.73065 14.2243 10.5094 12.8431 10.9837 11.2863C12.0846 11.497 13.1269 11.813 14.1693 12.2754Z" fill="white"/>
<path d="M7.35896 0.5C4.99324 0.780921 3.18967 1.84608 1.7843 3.78326C2.88517 4.12271 3.92164 4.44459 4.99324 4.77819C5.49098 3.15704 6.26393 1.7817 7.35896 0.5Z" fill="white"/>
<path d="M7.35896 15.5C4.99909 15.2191 3.20138 14.1598 1.7843 12.2167C2.13527 12.1085 2.4797 12.0021 2.82081 11.8967L2.8223 11.8962C3.55059 11.6711 4.26379 11.4508 4.99324 11.2277C5.49098 12.8312 6.25222 14.2183 7.35896 15.5Z" fill="white"/>
<path d="M10.0408 4.86008C9.60162 3.48474 8.92821 2.28498 7.99715 1.19641C7.06023 2.30253 6.38097 3.49645 5.95935 4.86008C7.33545 5.04151 8.67056 5.04736 10.0408 4.86008Z" fill="white"/>
<path d="M8.00301 14.8035C7.07195 13.7208 6.39853 12.521 5.95935 11.1457C7.32374 10.9526 8.65885 10.9584 10.0466 11.1399C9.60748 12.5093 8.93407 13.7033 8.00301 14.8035Z" fill="white"/>
</g>
</g>
<defs>
<clipPath id="clip0_39_303">
<rect width="16" height="16" fill="white"/>
</clipPath>
</defs>
</svg>
