<svg width="25" height="25" viewBox="0 0 25 25" fill="none" xmlns="http://www.w3.org/2000/svg">
<g clip-path="url(#clip0_55_2)">
<path d="M25 14.1209V10.2747H21.5289C21.2859 9.13176 20.8308 8.06736 20.2066 7.12451L22.5319 4.79923L19.8122 2.07956L17.463 4.42879C16.4786 3.80214 15.3671 3.35736 14.1758 3.14192V0H10.3297V3.25929C9.15901 3.54615 8.07643 4.05681 7.12967 4.74357L4.85418 2.46813L2.13456 5.18775L4.55099 7.60418C3.98846 8.57885 3.59962 9.66626 3.42632 10.8242H0V14.6703H3.6606C3.95709 15.7358 4.44055 16.7233 5.0733 17.5956L2.52308 20.1458L5.24269 22.8655L7.93385 20.1743C8.83104 20.6921 9.82379 21.0629 10.8791 21.2537V25H14.7253V21.1363C15.7643 20.8817 16.7339 20.4508 17.6008 19.877L20.2008 22.477L22.9204 19.7573L20.2965 17.1334C20.8747 16.2251 21.2977 15.2085 21.529 14.1209H25ZM12.5275 17.0055C9.87648 17.0055 7.71978 14.8488 7.71978 12.1978C7.71978 9.54681 9.87648 7.39011 12.5275 7.39011C15.1785 7.39011 17.3352 9.54681 17.3352 12.1978C17.3352 14.8488 15.1785 17.0055 12.5275 17.0055Z" fill="#555555"/>
</g>
<defs>
<clipPath id="clip0_55_2">
<rect width="25" height="25" fill="white"/>
</clipPath>
</defs>
</svg>
