<svg width="27" height="27" viewBox="0 0 27 27" fill="none" xmlns="http://www.w3.org/2000/svg">
<g id="sun_ryz9q0zre01z 1" clip-path="url(#clip0_13_58)">
<g id="Group">
<g id="Group_2">
<path id="Vector" d="M13.5 6.16306C9.45438 6.16306 6.16302 9.45441 6.16302 13.5C6.16302 17.5456 9.45438 20.837 13.5 20.837C17.5456 20.837 20.837 17.5456 20.837 13.5C20.837 9.45441 17.5456 6.16306 13.5 6.16306ZM13.5 19.0761C10.4253 19.0761 7.92393 16.5746 7.92393 13.5C7.92393 10.4254 10.4254 7.92396 13.5 7.92396C16.5746 7.92396 19.0761 10.4254 19.0761 13.5C19.0761 16.5747 16.5747 19.0761 13.5 19.0761Z" fill="#525252"/>
</g>
</g>
<g id="Group_3">
<g id="Group_4">
<path id="Vector_2" d="M14.3804 0H12.6196V4.69567H14.3804V0Z" fill="#525252"/>
</g>
</g>
<g id="Group_5">
<g id="Group_6">
<path id="Vector_3" d="M4.57658 3.33143L3.33148 4.57652L6.65175 7.89679L7.89685 6.6517L4.57658 3.33143Z" fill="#525252"/>
</g>
</g>
<g id="Group_7">
<g id="Group_8">
<path id="Vector_4" d="M4.69573 12.6196H6.10352e-05V14.3804H4.69573V12.6196Z" fill="#525252"/>
</g>
</g>
<g id="Group_9">
<g id="Group_10">
<path id="Vector_5" d="M6.65151 19.1032L3.33124 22.4235L4.57634 23.6686L7.89661 20.3483L6.65151 19.1032Z" fill="#525252"/>
</g>
</g>
<g id="Group_11">
<g id="Group_12">
<path id="Vector_6" d="M14.3804 22.3043H12.6196V27H14.3804V22.3043Z" fill="#525252"/>
</g>
</g>
<g id="Group_13">
<g id="Group_14">
<path id="Vector_7" d="M20.3485 19.1035L19.1034 20.3486L22.4237 23.6689L23.6688 22.4238L20.3485 19.1035Z" fill="#525252"/>
</g>
</g>
<g id="Group_15">
<g id="Group_16">
<path id="Vector_8" d="M27 12.6196H22.3044V14.3804H27V12.6196Z" fill="#525252"/>
</g>
</g>
<g id="Group_17">
<g id="Group_18">
<path id="Vector_9" d="M22.4225 3.33139L19.1022 6.65163L20.3473 7.89672L23.6676 4.57649L22.4225 3.33139Z" fill="#525252"/>
</g>
</g>
</g>
<defs>
<clipPath id="clip0_13_58">
<rect width="27" height="27" fill="white"/>
</clipPath>
</defs>
</svg>
