<svg width="30" height="30" viewBox="0 0 30 30" fill="none" xmlns="http://www.w3.org/2000/svg">
<g clip-path="url(#clip0_99_3)">
<path d="M15 6.84784C10.5049 6.84784 6.84784 10.5049 6.84784 15C6.84784 19.4952 10.5049 23.1522 15 23.1522C19.4952 23.1522 23.1522 19.4952 23.1522 15C23.1522 10.5049 19.4952 6.84784 15 6.84784ZM15 21.1957C11.5837 21.1957 8.8044 18.4163 8.8044 15C8.8044 11.5838 11.5838 8.8044 15 8.8044C18.4163 8.8044 21.1957 11.5837 21.1957 15C21.1957 18.4163 18.4163 21.1957 15 21.1957Z" fill="white"/>
<path d="M15.9782 0H14.0217V5.21741H15.9782V0Z" fill="white"/>
<path d="M5.0851 3.70158L3.70166 5.08502L7.39085 8.77421L8.77429 7.39077L5.0851 3.70158Z" fill="white"/>
<path d="M5.21747 14.0218H6.10352e-05V15.9783H5.21747V14.0218Z" fill="white"/>
<path d="M7.39055 21.2258L3.70135 24.915L5.0848 26.2984L8.77399 22.6092L7.39055 21.2258Z" fill="white"/>
<path d="M15.9782 24.7826H14.0217V30H15.9782V24.7826Z" fill="white"/>
<path d="M22.6095 21.2261L21.226 22.6096L24.9152 26.2987L26.2986 24.9153L22.6095 21.2261Z" fill="white"/>
<path d="M30 14.0218H24.7827V15.9783H30V14.0218Z" fill="white"/>
<path d="M24.9139 3.70155L21.2247 7.3907L22.6082 8.77414L26.2973 5.08499L24.9139 3.70155Z" fill="white"/>
</g>
<defs>
<clipPath id="clip0_99_3">
<rect width="30" height="30" fill="white"/>
</clipPath>
</defs>
</svg>
