<svg width="25" height="25" viewBox="0 0 25 25" fill="none" xmlns="http://www.w3.org/2000/svg">
<path d="M16.279 9.08072V7.55818C16.279 5.50321 14.6543 3.95355 12.5 3.95355C10.4162 3.95355 8.7209 5.64881 8.7209 7.73259V9.08072C7.38696 9.19888 6.33716 10.3219 6.33716 11.686V17.0349C6.33716 18.4775 7.51088 19.6512 8.95348 19.6512H16.0465C17.4891 19.6512 18.6629 18.4775 18.6629 17.0349V11.686C18.6627 10.3219 17.6129 9.19888 16.279 9.08072ZM10.465 7.73259C10.465 6.61064 11.378 5.69769 12.5 5.69769C13.6791 5.69769 14.5349 6.4801 14.5349 7.55818V9.06984H10.465V7.73259ZM16.9186 17.0349C16.9186 17.5158 16.5274 17.907 16.0465 17.907H8.95348C8.47251 17.907 8.08141 17.5157 8.08141 17.0349V11.686C8.08141 11.2052 8.47262 10.814 8.95348 10.814H16.0465C16.5275 10.814 16.9186 11.2053 16.9186 11.686V17.0349Z" fill="#555555"/>
<path d="M12.5 12.6163C12.0183 12.6163 11.6279 13.0067 11.6279 13.4884V15.2325C11.6279 15.7141 12.0183 16.1046 12.5 16.1046C12.9817 16.1046 13.3721 15.7141 13.3721 15.2325V13.4884C13.3721 13.0067 12.9817 12.6163 12.5 12.6163Z" fill="#555555"/>
<path d="M12.5 0C5.60753 0 0 5.6074 0 12.4999C0 19.3925 5.60753 25 12.5 25C19.3925 25 25 19.3926 25 12.5001C25 5.6075 19.3925 0 12.5 0ZM12.5 23.2559C6.56916 23.2559 1.74415 18.4309 1.74415 12.5001C1.74415 6.56924 6.56916 1.74425 12.5 1.74425C18.4308 1.74425 23.2559 6.56924 23.2559 12.5001C23.2559 18.4309 18.4308 23.2559 12.5 23.2559Z" fill="#555555"/>
</svg>
